# xmcd
#
# Track frame offsets: 
#        150
#        11002
#        26600
#        41560
#        55662
#        65384
#        75614
#        89822
#        105287
#        119629
#        136311
#        151016
#        163894
#        177170
#        190445
#        213951
#
# Disc length: 4159 seconds
#
# Revision: 0
# Processed by: cddbd v1.5.2PL0 Copyright (c) Steve Scherf et al.
# Submitted via: ExactAudioCopy v0.99pb5
#
DISCID=d3103d10
DTITLE=Типси Тип - БЫТНАБИТ
DYEAR=2010
DGENRE=Rap
TTITLE0=Быт
TTITLE1=Тут люди живут (уч. АмериканДримм)
TTITLE2=Олени (уч. Рома Чудо)
TTITLE3=За спиной (уч. Base)
TTITLE4=Бодрики
TTITLE5=Прохожие (уч. Reazon)
TTITLE6=Широко
TTITLE7=Плохой сын (уч. Шуба)
TTITLE8=Тормознули
TTITLE9=Всё в этой музыке (уч. ЗубНаЗуб)
TTITLE10=ПММЛ (уч. Sight MC)
TTITLE11=Речи (уч. Comme-Il-Faut )
TTITLE12=Круговорот
TTITLE13=Скоростной (уч. Shahim)
TTITLE14=Феличита
TTITLE15=Бонус
EXTD=
EXTT0=
EXTT1=
EXTT2=
EXTT3=
EXTT4=
EXTT5=
EXTT6=
EXTT7=
EXTT8=
EXTT9=
EXTT10=
EXTT11=
EXTT12=
EXTT13=
EXTT14=
EXTT15=
PLAYORDER=
